# xmcd
#
# Track frame offsets:
# 150
# 12130
# 23350
# 36185
# 48732
# 58967
# 70385
# 83105
# 93530
# 104655
# 118253
# 130841
# 144209
# 156294
# 166369
#
# Disc length: 2389 seconds
#
#
# Revision: 0
# Processed by: cddbd v1.5.1PL0 Copyright (c) Steve Scherf et al.
# Submitted via: FreeRIP 2.942 
#
DISCID=ce09530f
DTITLE=Various Artist - Lo Mejor Del Soul 2
DYEAR=1996
DGENRE=Soul
TTITLE0=The Platters - Smoke Gets In Yours Eyes
TTITLE1=The Drifters - Save The Last Dance For Me
TTITLE2=Mary Wells - My Guy
TTITLE3=Bob and Earl - Harlem Shuffle
TTITLE4=The MArcels - Blue Moon
TTITLE5=Sam and Dave - Soul Man
TTITLE6=Percy Sledge - Cover Me
TTITLE7=Brenton Wood - Gimme Little Sing
TTITLE8=Solomon Burke - If You Need Me
TTITLE9=King Floyd - Groove Me
TTITLE10=Fontella Bass - Rescue Me
TTITLE11=Eddy Floyd - Knock On Wood
TTITLE12=The Shirelles - Will You Still Love Tomorrow
TTITLE13=Betty Everett - It's In His Kiss (The Shoop Shoop
TTITLE14=Ben E. King - Don't Play That Song
EXTD=
EXTT0=Arcade España S.A
EXTT1=Arcade España S.A
EXTT2=Arcade España S.A
EXTT3=Arcade España S.A
EXTT4=Arcade España S.A
EXTT5=Arcade España S.A
EXTT6=Arcade España S.A
EXTT7=Arcade España S.A
EXTT8=Arcade España S.A
EXTT9=Arcade España S.A
EXTT10=Arcade España S.A
EXTT11=Arcade España S.A
EXTT12=Arcade España S.A
EXTT13=Arcade España S.A
EXTT14=Arcade España S.A
PLAYORDER=
